# xmcd
#
# Track frame offsets:
# 150
# 18937
# 37815
# 53371
# 66083
# 91287
# 107859
# 128207
# 149653
# 165155
#
# Disc length: 2414 seconds
#
#
# Revision: 0
# Processed by: cddbd v1.5.2PL0 Copyright (c) Steve Scherf et al.
# Submitted via: Nero 7, 11, 10, 0 
#
DISCID=78096c0a
DTITLE=Dave Moretti Blues Revue - That's Swing
DYEAR=2014
DGENRE=Blues
TTITLE0=Good Morning Judge
TTITLE1=That's Swing
TTITLE2=Dancin'
TTITLE3=Straighten Up And Fly Right
TTITLE4=Just Like A Dog
TTITLE5=Bad
TTITLE6=Gsus
TTITLE7=Cattle Raiding
TTITLE8=I Walked Away
TTITLE9=You Know Why
EXTD=
EXTT0=Good Morning Judge
EXTT1=That's Swing
EXTT2=Dancin'
EXTT3=Straighten Up And Fly Right
EXTT4=Just Like A Dog
EXTT5=Bad
EXTT6=Gsus
EXTT7=Cattle Raiding
EXTT8=I Walked Away
EXTT9=You Know Why
PLAYORDER=
